<?xml version="1.0" encoding="utf-8"?>
<!-- Generator: Adobe Illustrator 16.0.3, SVG Export Plug-In . SVG Version: 6.00 Build 0)  -->
<!DOCTYPE svg PUBLIC "-//W3C//DTD SVG 1.1//EN" "http://www.w3.org/Graphics/SVG/1.1/DTD/svg11.dtd">
<svg version="1.1" id="圖層_1" xmlns="http://www.w3.org/2000/svg" xmlns:xlink="http://www.w3.org/1999/xlink" x="0px" y="0px"
	 width="800px" height="800px" viewBox="0 0 800 800" enable-background="new 0 0 800 800" xml:space="preserve">
<circle fill="#FF8A65" cx="400.111" cy="400" r="400"/>
<g>
	<g>
		<g>
			<path fill="#FFFFFF" d="M345.254,309.004c0,72.834-59.054,131.89-131.89,131.89c-72.84,0-131.89-59.056-131.89-131.89
				c0-72.841,59.05-131.891,131.89-131.891C286.2,177.114,345.254,236.164,345.254,309.004z"/>
		</g>
		<g>
			<g>
				<circle fill="#FF8A65" cx="154.746" cy="284.884" r="23.203"/>
			</g>
			<g>
				<path fill="#FF8A65" d="M295.185,284.884c0,12.815-10.393,23.202-23.204,23.202c-12.813,0-23.202-10.387-23.202-23.202
					c0-12.816,10.39-23.204,23.202-23.204C284.792,261.68,295.185,272.068,295.185,284.884z"/>
			</g>
		</g>
		<g>
			<g>
				<path fill="#FF8A65" d="M236.229,322c-2.689,14-11.601,17.096-22.285,17.096c-10.687,0-19.594-3.096-22.289-17.096H236.229z"/>
			</g>
			<g>
				<path fill="#FF8A65" d="M213.944,339.096c10.685,0,19.596-3.096,22.285-17.096h-44.574
					C194.351,336,203.258,339.096,213.944,339.096z"/>
			</g>
		</g>
		<g>
			<g>
				<path fill="#FFFFFF" d="M259.229,496.455c-10.231,0-18.524-8.292-18.524-18.523s8.293-18.524,18.524-18.524
					c20.057,0,44.285-14.906,44.285-33.416c0-10.231,8.292-18.523,18.522-18.523c10.231,0,18.525,8.292,18.525,18.523
					C340.562,467.517,297.697,496.455,259.229,496.455z"/>
			</g>
		</g>
		<g>
			<path fill="#64FFDA" d="M295,513v-1.951c-8-38.733-41.635-68.23-82.816-68.23c-42.176,0-76.229,31.182-83.353,70.182H295z"/>
		</g>
		<g>
			<g>
				<path fill="#FFAB91" d="M297.682,316.462c-19.391,0-35.13,15.743-35.13,35.128c0,19.394,15.739,35.132,35.13,35.132
					c19.395,0,35.133-15.738,35.133-35.132C332.814,332.205,317.076,316.462,297.682,316.462z"/>
			</g>
			<g>
				<path fill="#FFAB91" d="M129.045,316.462c-19.391,0-35.131,15.743-35.131,35.128c0,19.394,15.74,35.132,35.131,35.132
					s35.132-15.738,35.132-35.132C164.177,332.205,148.436,316.462,129.045,316.462z"/>
			</g>
		</g>
		<g>
			<path fill="#FF8A65" d="M213.364,449.154c-77.279,0-140.149-62.872-140.149-140.15c0-77.278,62.87-140.149,140.149-140.149
				c77.277,0,140.148,62.871,140.148,140.149C353.513,386.282,290.642,449.154,213.364,449.154z M213.364,185.374
				c-68.171,0-123.63,55.461-123.63,123.63c0,68.172,55.459,123.632,123.63,123.632c68.17,0,123.629-55.46,123.629-123.632
				C336.993,240.835,281.534,185.374,213.364,185.374z"/>
		</g>
	</g>
	<g>
		<g>
			<g>
				<path fill="#FFFFFF" d="M392.999,364h-35.102c-5.701,0-10.323-4.796-10.323-10.5c0-5.703,4.622-10.5,10.323-10.5h35.102
					c5.703,0,10.324,4.797,10.324,10.5C403.323,359.204,398.702,364,392.999,364z"/>
			</g>
		</g>
		<g>
			<g>
				<path fill="#FFFFFF" d="M373.5,381.721c-5.701,0-10.5-4.621-10.5-10.323v-35.101c0-5.701,4.799-10.324,10.5-10.324
					c5.703,0,10.5,4.624,10.5,10.324v35.101C384,377.101,379.203,381.721,373.5,381.721z"/>
			</g>
		</g>
	</g>
	<g>
		<g>
			<g>
				<path fill="#FFFFFF" d="M387.979,282h-26.436c-4.296,0-7.775-4.208-7.775-8.5s3.479-8.5,7.775-8.5h26.436
					c4.291,0,7.772,4.208,7.772,8.5S392.271,282,387.979,282z"/>
			</g>
		</g>
		<g>
			<g>
				<path fill="#FFFFFF" d="M374,295.001c-4.293,0-8-3.479-8-7.774v-26.435c0-4.292,3.707-7.773,8-7.773s8,3.482,8,7.773v26.435
					C382,291.521,378.293,295.001,374,295.001z"/>
			</g>
		</g>
	</g>
	<g>
		<g>
			<path fill="#FFFFFF" d="M357.614,540.154c0,45.699,37.052,82.752,82.752,82.752c45.703,0,82.753-37.053,82.753-82.752
				c0-45.702-37.05-82.754-82.753-82.754C394.666,457.4,357.614,494.452,357.614,540.154z"/>
		</g>
		<g>
			<g>
				<path fill="#FFFFFF" d="M411.588,657.768c6.421,0,11.624-5.2,11.624-11.621c0-6.42-5.203-11.623-11.624-11.623
					c-12.584,0-27.786-9.353-27.786-20.966c0-6.421-5.201-11.623-11.621-11.623c-6.421,0-11.624,5.202-11.624,11.623
					C360.557,639.613,387.452,657.768,411.588,657.768z"/>
			</g>
		</g>
		<g>
			<path fill="#64FFDA" d="M389,668v-1.075c4-24.303,26.197-42.886,52.035-42.886c26.463,0,47.902,18.961,52.371,43.961H389z"/>
		</g>
		<g>
			<path fill="#FF8A65" d="M440.366,628.09c-48.487,0-87.936-39.448-87.936-87.936c0-48.489,39.448-87.935,87.936-87.935
				s87.936,39.445,87.936,87.935C528.302,588.642,488.854,628.09,440.366,628.09z M440.366,462.584
				c-42.773,0-77.57,34.796-77.57,77.57c0,42.773,34.797,77.571,77.57,77.571c42.772,0,77.57-34.798,77.57-77.571
				C517.937,497.38,483.139,462.584,440.366,462.584z"/>
		</g>
	</g>
	<g>
		<g>
			<path fill="#FFFFFF" d="M498.117,540.928c0,45.7,37.053,82.753,82.754,82.753c45.7,0,82.753-37.053,82.753-82.753
				c0-45.701-37.053-82.751-82.753-82.751C535.17,458.177,498.117,495.227,498.117,540.928z"/>
		</g>
		<g>
			<g>
				<path fill="#FFFFFF" d="M552.092,658.544c6.42,0,11.623-5.202,11.623-11.623c0-6.419-5.203-11.621-11.623-11.621
					c-12.583,0-27.787-9.353-27.787-20.969c0-6.418-5.201-11.621-11.621-11.621c-6.421,0-11.623,5.203-11.623,11.621
					C501.061,640.389,527.956,658.544,552.092,658.544z"/>
			</g>
		</g>
		<g>
			<path fill="#64FFDA" d="M528,668v-0.301c6-24.302,26.951-43.271,52.789-43.271c26.463,0,48.65,20.572,53.12,43.572H528z"/>
		</g>
		<g>
			<path fill="#FF8A65" d="M580.871,628.866c-48.488,0-87.937-39.449-87.937-87.938c0-48.487,39.448-87.934,87.937-87.934
				c48.486,0,87.935,39.446,87.935,87.934C668.806,589.417,629.357,628.866,580.871,628.866z M580.871,463.36
				c-42.773,0-77.572,34.797-77.572,77.567c0,42.773,34.799,77.573,77.572,77.573c42.772,0,77.568-34.8,77.568-77.573
				C658.439,498.157,623.644,463.36,580.871,463.36z"/>
		</g>
	</g>
	<path fill="#FFAB91" d="M726.785,278.011c0,80.606-65.34,145.953-145.951,145.953c-80.603,0-145.949-65.347-145.949-145.953
		c0-80.606,65.347-145.95,145.949-145.95C661.445,132.061,726.785,197.405,726.785,278.011z"/>
	<path fill="#FFAB91" d="M502.583,275.546c-5.308-21.613-17.797-39.57-34.299-51.979c45.868-5.462,89.671,23.99,100.976,69.993
		c12.233,49.771-18.196,100.032-67.966,112.265c-28.154,6.918-56.465,0.177-77.962-15.988c3.752-0.449,7.52-1.102,11.284-2.026
		C484.386,375.579,514.818,325.314,502.583,275.546z"/>
	<path fill="#FFFFFF" d="M649.43,228.59c-7.719-2.433-16.197-3.476-24.33-3.476c-13.56,0-28.154,2.781-38.237,10.428
		c-10.082-7.647-24.681-10.428-38.235-10.428c-13.557,0-28.157,2.781-38.234,10.428v101.842c0,1.739,1.737,3.477,3.477,3.477
		c0.692,0,1.037-0.346,1.736-0.346c9.382-4.518,22.941-7.647,33.021-7.647c13.555,0,28.153,2.778,38.235,10.428
		c9.383-5.913,26.416-10.428,38.237-10.428c11.465,0,23.286,2.084,33.021,7.299c0.694,0.348,1.04,0.348,1.737,0.348
		c1.739,0,3.476-1.737,3.476-3.476V235.542C659.16,232.414,654.645,230.329,649.43,228.59z M649.43,322.441
		c-7.651-2.435-15.988-3.476-24.33-3.476c-11.821,0-28.854,4.518-38.237,10.427v-79.947c9.383-5.909,26.416-10.427,38.237-10.427
		c8.342,0,16.679,1.041,24.33,3.476V322.441z"/>
</g>
</svg>
