<?xml version="1.0" encoding="utf-8"?>
<!-- Generator: Adobe Illustrator 16.0.3, SVG Export Plug-In . SVG Version: 6.00 Build 0)  -->
<!DOCTYPE svg PUBLIC "-//W3C//DTD SVG 1.1//EN" "http://www.w3.org/Graphics/SVG/1.1/DTD/svg11.dtd">
<svg version="1.1" id="圖層_2" xmlns="http://www.w3.org/2000/svg" xmlns:xlink="http://www.w3.org/1999/xlink" x="0px" y="0px"
	 width="800px" height="800px" viewBox="0 0 800 800" enable-background="new 0 0 800 800" xml:space="preserve">
<circle fill="#FF8A65" cx="400.111" cy="400" r="400"/>
<g>
	<path fill="#FFAB91" d="M400,707.643C230.365,707.643,92.357,569.634,92.357,400C92.357,230.365,230.365,92.357,400,92.357
		c169.634,0,307.643,138.008,307.643,307.643C707.643,569.634,569.634,707.643,400,707.643z M400,128.684
		c-149.605,0-271.316,121.712-271.316,271.316S250.395,671.316,400,671.316c149.604,0,271.316-121.712,271.316-271.316
		S549.604,128.684,400,128.684z"/>
</g>
<g>
	<g>
		<path fill="#FFFFFF" d="M686.073,245h-38.597c-6.271,0-11.353-5.229-11.353-11.5s5.082-11.5,11.353-11.5h38.597
			c6.271,0,11.353,5.229,11.353,11.5S692.344,245,686.073,245z"/>
	</g>
	<g>
		<path fill="#FFFFFF" d="M666,263.774c-6.271,0-11-5.083-11-11.353v-38.597c0-6.27,4.729-11.352,11-11.352s11,5.082,11,11.352
			v38.597C677,258.692,672.271,263.774,666,263.774z"/>
	</g>
</g>
<g>
	<g>
		<path fill="#FFFFFF" d="M694.176,159h-29.068c-4.723,0-8.55-4.279-8.55-9c0-4.72,3.827-9,8.55-9h29.068
			c4.721,0,8.547,4.28,8.547,9C702.723,154.721,698.896,159,694.176,159z"/>
	</g>
	<g>
		<path fill="#FFFFFF" d="M679.5,172.957c-4.721,0-8.5-3.827-8.5-8.55v-29.068c0-4.717,3.779-8.547,8.5-8.547
			c4.72,0,8.5,3.83,8.5,8.547v29.068C688,169.13,684.22,172.957,679.5,172.957z"/>
	</g>
</g>
<g>
	<g>
		<g>
			<g>
				<path fill="#64FFDA" d="M176.773,531l1.333-7.565c6.075-34.182,35.126-59.022,69.076-59.022
					c33.215,0,60.459,23.014,67.644,55.988L314,521.056V531H176.773z"/>
			</g>
			<g>
				<path fill="#FF8A65" d="M246.901,471.02c31.15,0,55.099,21.424,62.099,50.724V525H184.391
					C189.78,494,214.996,471.02,246.901,471.02 M246.811,457.997c-37.049,0-68.558,26.895-75.176,64.128L169.155,537h15.236H309.56
					H321v-12.513v-2.744v-1.374v-1.344C314,483.093,283.055,457.997,246.811,457.997L246.811,457.997z"/>
			</g>
		</g>
		<g>
			<g>
				<path fill="#FFFFFF" d="M348.08,368.906c0,55.097-44.671,99.77-99.768,99.77c-55.097,0-99.767-44.673-99.767-99.77
					c0-55.101,44.669-99.768,99.767-99.768C303.409,269.138,348.08,313.806,348.08,368.906z"/>
			</g>
			<g>
				<g>
					<path fill="#FF8A65" d="M221.524,350.662c0,9.694-7.857,17.549-17.552,17.549c-9.694,0-17.551-7.854-17.551-17.549
						c0-9.697,7.857-17.554,17.551-17.554C213.667,333.108,221.524,340.965,221.524,350.662z"/>
				</g>
				<g>
					<path fill="#FF8A65" d="M310.208,350.662c0,9.694-7.861,17.549-17.553,17.549c-9.694,0-17.552-7.854-17.552-17.549
						c0-9.697,7.857-17.554,17.552-17.554C302.347,333.108,310.208,340.965,310.208,350.662z"/>
				</g>
			</g>
			<g>
				<g>
					<path fill="#FF8A65" d="M265.612,380c-2.036,9-8.777,12.934-16.857,12.934c-8.086,0-14.825-3.934-16.863-12.934H265.612z"/>
				</g>
				<g>
					<path fill="#FF8A65" d="M248.755,392.934c8.08,0,14.821-3.934,16.857-12.934h-33.72
						C233.93,389,240.669,392.934,248.755,392.934z"/>
				</g>
			</g>
			<g>
				<g>
					<path fill="#FFAB91" d="M311.949,375.125c-14.665,0-26.572,11.91-26.572,26.574c0,14.669,11.907,26.575,26.572,26.575
						c14.675,0,26.579-11.906,26.579-26.575C338.528,387.035,326.624,375.125,311.949,375.125z"/>
				</g>
				<g>
					<path fill="#FFAB91" d="M184.387,375.125c-14.669,0-26.576,11.91-26.576,26.574c0,14.669,11.907,26.575,26.576,26.575
						c14.668,0,26.576-11.906,26.576-26.575C210.963,387.035,199.055,375.125,184.387,375.125z"/>
				</g>
			</g>
			<g>
				<path fill="#FF8A65" d="M248.313,475.059c-58.531,0-106.15-47.618-106.15-106.152c0-58.532,47.62-106.15,106.15-106.15
					c58.532,0,106.152,47.619,106.152,106.15C354.465,427.44,306.845,475.059,248.313,475.059z M248.313,275.523
					c-51.491,0-93.383,41.892-93.383,93.383c0,51.492,41.893,93.386,93.383,93.386c51.492,0,93.384-41.894,93.384-93.386
					C341.696,317.415,299.805,275.523,248.313,275.523z"/>
			</g>
		</g>
	</g>
	<g>
		<g>
			<g>
				<path fill="#64FFDA" d="M328.532,531l1.332-7.398c6.074-34.182,35.126-58.939,69.076-58.939
					c33.215,0,60.579,23.055,67.765,56.029L466,521.389V531H328.532z"/>
			</g>
			<g>
				<path fill="#FF8A65" d="M398.781,471.186c31.15,0,55.219,21.591,62.219,50.891V525H336.149
					C341.539,494,366.875,471.186,398.781,471.186 M398.689,458.33c-37.049,0-68.618,26.729-75.236,63.961L320.913,537h15.236
					h125.169H473v-12.18v-2.744v-1.374v-1.344C466,483.426,434.934,458.33,398.689,458.33L398.689,458.33z"/>
			</g>
		</g>
		<g>
			<g>
				<path fill="#FFFFFF" d="M499.839,369.239c0,55.097-44.671,99.77-99.768,99.77c-55.098,0-99.767-44.673-99.767-99.77
					c0-55.1,44.669-99.768,99.767-99.768C455.168,269.472,499.839,314.139,499.839,369.239z"/>
			</g>
			<g>
				<g>
					<path fill="#FF8A65" d="M373.282,350.996c0,9.694-7.856,17.548-17.551,17.548c-9.695,0-17.552-7.854-17.552-17.548
						c0-9.697,7.856-17.554,17.552-17.554C365.426,333.441,373.282,341.299,373.282,350.996z"/>
				</g>
				<g>
					<path fill="#FF8A65" d="M461.967,350.996c0,9.694-7.861,17.548-17.553,17.548c-9.694,0-17.552-7.854-17.552-17.548
						c0-9.697,7.857-17.554,17.552-17.554C454.105,333.441,461.967,341.299,461.967,350.996z"/>
				</g>
			</g>
			<g>
				<g>
					<path fill="#FF8A65" d="M417.371,380c-2.036,9-8.777,12.934-16.856,12.934c-8.087,0-14.826-3.934-16.863-12.934H417.371z"/>
				</g>
				<g>
					<path fill="#FF8A65" d="M400.515,392.934c8.079,0,14.82-3.934,16.856-12.934h-33.72
						C385.688,389,392.428,392.934,400.515,392.934z"/>
				</g>
			</g>
			<g>
				<g>
					<path fill="#FFAB91" d="M463.708,374.792c-14.665,0-26.572,11.91-26.572,26.574c0,14.67,11.907,26.576,26.572,26.576
						c14.675,0,26.579-11.906,26.579-26.576C490.287,386.702,478.383,374.792,463.708,374.792z"/>
				</g>
				<g>
					<path fill="#FFAB91" d="M336.146,374.792c-14.669,0-26.576,11.91-26.576,26.574c0,14.67,11.907,26.576,26.576,26.576
						c14.668,0,26.576-11.906,26.576-26.576C362.722,386.702,350.813,374.792,336.146,374.792z"/>
				</g>
			</g>
			<g>
				<path fill="#FF8A65" d="M400.071,475.392c-58.531,0-106.15-47.618-106.15-106.152c0-58.531,47.619-106.15,106.15-106.15
					c58.532,0,106.152,47.619,106.152,106.15C506.224,427.773,458.604,475.392,400.071,475.392z M400.071,275.856
					c-51.49,0-93.383,41.892-93.383,93.383c0,51.492,41.893,93.386,93.383,93.386c51.492,0,93.384-41.894,93.384-93.386
					C493.455,317.749,451.563,275.856,400.071,275.856z"/>
			</g>
		</g>
	</g>
	<g>
		<g>
			<g>
				<path fill="#64FFDA" d="M480.291,531l1.332-7.398c6.074-34.182,35.126-58.939,69.076-58.939c33.215,0,60.7,23.055,67.885,56.029
					L618,521.389V531H480.291z"/>
			</g>
			<g>
				<path fill="#FF8A65" d="M550.66,471.186c31.15,0,55.34,21.591,62.34,50.891V525H487.908
					C493.298,494,518.755,471.186,550.66,471.186 M550.569,458.33c-37.049,0-68.679,26.729-75.297,63.961L472.672,537h15.236
					h125.169H625v-12.18v-2.744v-1.374v-1.344C618,483.426,586.813,458.33,550.569,458.33L550.569,458.33z"/>
			</g>
		</g>
		<g>
			<g>
				<path fill="#FFFFFF" d="M651.598,369.239c0,55.097-44.671,99.77-99.768,99.77c-55.098,0-99.767-44.673-99.767-99.77
					c0-55.1,44.669-99.768,99.767-99.768C606.927,269.472,651.598,314.139,651.598,369.239z"/>
			</g>
			<g>
				<g>
					<path fill="#FF8A65" d="M525.041,350.996c0,9.694-7.856,17.548-17.551,17.548c-9.695,0-17.552-7.854-17.552-17.548
						c0-9.697,7.856-17.554,17.552-17.554C517.185,333.441,525.041,341.299,525.041,350.996z"/>
				</g>
				<g>
					<path fill="#FF8A65" d="M613.726,350.996c0,9.694-7.861,17.548-17.553,17.548c-9.694,0-17.552-7.854-17.552-17.548
						c0-9.697,7.857-17.554,17.552-17.554C605.864,333.441,613.726,341.299,613.726,350.996z"/>
				</g>
			</g>
			<g>
				<g>
					<path fill="#FF8A65" d="M569.13,380c-2.036,9-8.777,12.934-16.856,12.934c-8.087,0-14.826-3.934-16.863-12.934H569.13z"/>
				</g>
				<g>
					<path fill="#FF8A65" d="M552.273,392.934c8.079,0,14.82-3.934,16.856-12.934h-33.72
						C537.447,389,544.187,392.934,552.273,392.934z"/>
				</g>
			</g>
			<g>
				<g>
					<path fill="#FFAB91" d="M615.467,374.792c-14.665,0-26.572,11.91-26.572,26.574c0,14.67,11.907,26.576,26.572,26.576
						c14.675,0,26.579-11.906,26.579-26.576C642.046,386.702,630.142,374.792,615.467,374.792z"/>
				</g>
				<g>
					<path fill="#FFAB91" d="M487.904,374.792c-14.669,0-26.576,11.91-26.576,26.574c0,14.67,11.907,26.576,26.576,26.576
						c14.668,0,26.576-11.906,26.576-26.576C514.48,386.702,502.572,374.792,487.904,374.792z"/>
				</g>
			</g>
			<g>
				<path fill="#FF8A65" d="M551.83,475.392c-58.531,0-106.15-47.618-106.15-106.152c0-58.531,47.619-106.15,106.15-106.15
					c58.532,0,106.152,47.619,106.152,106.15C657.982,427.773,610.362,475.392,551.83,475.392z M551.83,275.856
					c-51.49,0-93.383,41.892-93.383,93.383c0,51.492,41.893,93.386,93.383,93.386c51.492,0,93.384-41.894,93.384-93.386
					C645.214,317.749,603.322,275.856,551.83,275.856z"/>
			</g>
		</g>
	</g>
</g>
</svg>
