<?xml version="1.0" encoding="utf-8"?>
<!-- Generator: Adobe Illustrator 16.0.3, SVG Export Plug-In . SVG Version: 6.00 Build 0)  -->
<!DOCTYPE svg PUBLIC "-//W3C//DTD SVG 1.1//EN" "http://www.w3.org/Graphics/SVG/1.1/DTD/svg11.dtd">
<svg version="1.1" id="圖層_3" xmlns="http://www.w3.org/2000/svg" xmlns:xlink="http://www.w3.org/1999/xlink" x="0px" y="0px"
	 width="800px" height="800px" viewBox="0 0 800 800" enable-background="new 0 0 800 800" xml:space="preserve">
<circle fill="#FF8A65" cx="400.111" cy="400" r="400"/>
<path fill="#FFAB91" d="M97.09,355.97c0,167.294,135.608,302.917,302.912,302.917c167.286,0,302.908-135.622,302.908-302.917
	c0-167.293-135.622-302.91-302.908-302.91C232.698,53.061,97.09,188.677,97.09,355.97z"/>
<path fill="#64FFDA" d="M285.078,377.864c6.257,0,11.319-5.119,11.319-11.375l0.055-56.874c0-6.256-5.117-11.375-11.374-11.375
	H194.08c-6.257,0-11.374,5.118-11.374,11.375v56.874c0,6.256,5.117,11.375,11.374,11.375h-22.75v11.375h136.497v-11.375H285.078z
	 M194.08,309.616h90.998v56.874H194.08V309.616z"/>
<path fill="#64FFDA" d="M445.409,431.709h-45.298v7.549l24.537,22.65l-24.537,22.648v7.551h45.298v-11.325h-26.424l18.875-18.874
	l-18.875-18.875h26.424V431.709z"/>
<path fill="#FFFFFF" d="M107.318,364.115l-34.352-34.354c3.397-8.682,1.51-18.874-5.663-26.046
	c-7.55-7.55-18.875-9.059-27.935-4.909l16.232,16.233l-11.324,11.326l-16.609-16.234c-4.531,9.06-2.644,20.385,4.906,27.935
	c7.173,7.174,17.365,9.062,26.047,5.663l34.351,34.354c1.51,1.508,3.775,1.508,5.285,0l8.683-8.685
	C108.827,367.891,108.827,365.247,107.318,364.115z"/>
<path fill="#FFFFFF" d="M640.001,167.356c-8.567-2.227-11.325-4.53-11.325-8.116c0-4.115,3.814-6.983,10.193-6.983
	c6.72,0,9.211,3.209,9.438,7.927h8.342c-0.266-6.493-4.229-12.457-12.117-14.382v-8.267h-11.325v8.154
	c-7.323,1.586-13.211,6.342-13.211,13.627c0,8.72,7.21,13.062,17.742,15.59c9.438,2.265,11.324,5.586,11.324,9.098
	c0,2.604-1.851,6.757-10.192,6.757c-7.776,0-10.834-3.474-11.25-7.928h-8.303c0.452,8.267,6.644,12.91,13.89,14.458v8.191h11.325
	v-8.116c7.362-1.397,13.213-5.662,13.213-13.402C657.744,173.246,648.572,169.583,640.001,167.356z"/>
<path fill="#FFFFFF" d="M635.396,439.151l23.164-23.159c2.267-2.271,2.267-5.939,0-8.206l-25.257-25.254
	c-2.271-2.273-5.939-2.273-8.207,0l-23.163,23.159l-23.158-23.159c-1.165-1.108-2.62-1.688-4.131-1.688
	c-1.456,0-2.969,0.58-4.075,1.688l-25.255,25.254c-2.271,2.267-2.271,5.935,0,8.206l23.157,23.159l-23.157,23.163
	c-2.271,2.269-2.271,5.935,0,8.208l25.255,25.256c2.267,2.266,5.936,2.266,8.206,0l23.158-23.165l23.163,23.165
	c1.167,1.165,2.621,1.688,4.133,1.688s2.966-0.586,4.131-1.688l25.256-25.256c2.273-2.273,2.273-5.939,0-8.208L635.396,439.151z
	 M602.052,421.579c3.201,0,5.82,2.618,5.82,5.82c0,3.199-2.619,5.818-5.82,5.818c-3.202,0-5.818-2.619-5.818-5.818
	C596.233,424.197,598.85,421.579,602.052,421.579z M574.644,432.986l-21.127-21.067l21.127-21.124l21.064,21.068L574.644,432.986z
	 M590.413,444.858c-3.202,0-5.818-2.621-5.818-5.82c0-3.202,2.616-5.82,5.818-5.82c3.199,0,5.82,2.618,5.82,5.82
	C596.233,442.237,593.612,444.858,590.413,444.858z M602.052,456.496c-3.202,0-5.818-2.62-5.818-5.819
	c0-3.2,2.616-5.818,5.818-5.818c3.201,0,5.82,2.618,5.82,5.818C607.872,453.876,605.253,456.496,602.052,456.496z M613.692,433.218
	c3.199,0,5.817,2.618,5.817,5.82c0,3.199-2.618,5.82-5.817,5.82c-3.201,0-5.82-2.621-5.82-5.82
	C607.872,435.836,610.491,433.218,613.692,433.218z M629.172,487.571l-21.124-21.067l21.124-21.123l21.065,21.066L629.172,487.571z"
	/>
<path fill="#64FFDA" d="M531.544,337.878c18.76,0,33.975-15.214,33.975-33.974C546.758,303.904,531.544,319.118,531.544,337.878z
	 M507.385,293.523c0,5.21,4.228,9.437,9.438,9.437c1.999,0,3.813-0.604,5.36-1.661l-0.076,0.717c0,5.209,4.229,9.438,9.438,9.438
	s9.438-4.228,9.438-9.438l-0.076-0.717c1.51,1.057,3.361,1.661,5.36,1.661c5.211,0,9.438-4.227,9.438-9.437
	c0-3.775-2.228-6.984-5.399-8.494c3.172-1.51,5.399-4.719,5.399-8.494c0-5.21-4.227-9.437-9.438-9.437
	c-1.999,0-3.813,0.603-5.36,1.66l0.076-0.716c0-5.21-4.229-9.438-9.438-9.438s-9.438,4.227-9.438,9.438l0.076,0.716
	c-1.51-1.057-3.361-1.66-5.36-1.66c-5.21,0-9.438,4.227-9.438,9.437c0,3.775,2.228,6.984,5.397,8.494
	C509.612,286.539,507.385,289.748,507.385,293.523z M531.544,275.592c5.209,0,9.438,4.228,9.438,9.438
	c0,5.209-4.229,9.437-9.438,9.437s-9.438-4.228-9.438-9.437C522.106,279.819,526.335,275.592,531.544,275.592z M497.569,303.904
	c0,18.76,15.213,33.974,33.975,33.974C531.544,319.118,516.331,303.904,497.569,303.904z"/>
<path fill="#64FFDA" d="M159.524,124.308c-18.761,0-33.975,15.213-33.975,33.975c0,18.76,15.213,33.975,33.975,33.975
	c3.133,0,5.662-2.529,5.662-5.663c0-1.471-0.565-2.794-1.47-3.812c-0.871-0.983-1.436-2.304-1.436-3.739
	c0-3.133,2.529-5.662,5.662-5.662h6.682c10.418,0,18.875-8.457,18.875-18.875C193.498,137.823,178.284,124.308,159.524,124.308z
	 M138.762,158.283c-3.134,0-5.663-2.529-5.663-5.663s2.529-5.663,5.663-5.663c3.133,0,5.662,2.529,5.662,5.663
	S141.895,158.283,138.762,158.283z M150.086,143.183c-3.134,0-5.663-2.529-5.663-5.662c0-3.134,2.529-5.663,5.663-5.663
	c3.133,0,5.662,2.529,5.662,5.663C155.749,140.654,153.22,143.183,150.086,143.183z M168.96,143.183
	c-3.133,0-5.662-2.529-5.662-5.662c0-3.134,2.528-5.663,5.662-5.663c3.134,0,5.663,2.529,5.663,5.663
	C174.623,140.654,172.094,143.183,168.96,143.183z M180.286,158.283c-3.133,0-5.663-2.529-5.663-5.663s2.529-5.663,5.663-5.663
	s5.663,2.529,5.663,5.663S183.419,158.283,180.286,158.283z"/>
<path fill="#FFFFFF" d="M286.194,209.937v15.1l26.424,14.421l26.425-14.421v-15.1l-26.425,14.421L286.194,209.937z M312.618,171.509
	l-41.524,22.65l41.524,22.649l33.975-18.535v26.084h7.55v-30.199L312.618,171.509z"/>
<path fill="#64FFDA" d="M708.012,349.468l-9.588-9.476l0.111-0.113c6.57-7.324,11.25-15.742,14.008-24.651h11.059v-7.55h-26.424
	v-7.55h-7.55v7.55h-26.425v7.512h42.166c-2.528,7.286-6.53,14.194-11.966,20.234c-3.512-3.888-6.417-8.154-8.722-12.646h-7.549
	c2.756,6.153,6.53,11.966,11.249,17.214l-19.214,18.95l5.36,5.36l18.875-18.875l11.741,11.742L708.012,349.468z M729.265,330.328
	h-7.55l-16.986,45.299h7.549l4.229-11.325h17.932l4.265,11.325h7.55L729.265,330.328z M719.374,356.753l6.115-16.346l6.116,16.346
	H719.374L719.374,356.753z"/>
<path fill="#FFFFFF" d="M159.524,474.763c-8.909-8.304-20.838-13.399-33.975-13.399v41.523c13.136,0,25.065,5.097,33.975,13.4
	c8.91-8.266,20.837-13.4,33.974-13.4v-41.523C180.361,461.363,168.434,466.459,159.524,474.763z M159.524,461.363
	c6.267,0,11.324-5.059,11.324-11.325s-5.058-11.325-11.324-11.325s-11.325,5.059-11.325,11.325S153.257,461.363,159.524,461.363z"/>
<path fill="#64FFDA" d="M508.265,91.378H483.5c-2.489-6.872-9.007-11.849-16.709-11.849s-14.219,4.978-16.71,11.849h-24.765
	c-6.52,0-11.849,5.333-11.849,11.851v82.949c0,6.518,5.329,11.85,11.849,11.85h82.948c6.518,0,11.851-5.332,11.851-11.85v-82.949
	C520.115,96.711,514.782,91.378,508.265,91.378z M466.791,91.378c3.258,0,5.925,2.666,5.925,5.925c0,3.26-2.667,5.926-5.925,5.926
	c-3.257,0-5.926-2.666-5.926-5.926C460.865,94.044,463.534,91.378,466.791,91.378z M478.642,174.328h-41.476v-11.85h41.476V174.328z
	 M496.417,150.628h-59.251v-11.85h59.251V150.628z M496.417,126.928h-59.251v-11.849h59.251V126.928z"/>
<g>
	<defs>
		<path id="SVGID_1_" d="M598.991,554.149c-24.549-7.736-51.514-11.054-77.379-11.054c-43.125,0-89.545,8.846-121.615,33.168
			c-32.064-24.322-78.496-33.168-121.606-33.168c-43.117,0-89.555,8.846-121.604,33.168v323.909c0,5.528,5.525,11.057,11.057,11.057
			c2.202,0,3.299-1.101,5.522-1.101c29.839-14.367,72.965-24.318,105.025-24.318c43.11,0,89.542,8.836,121.606,33.166
			c42.541-26.805,71.318-33.166,121.615-33.166c36.463,0,74.063,6.628,105.023,23.214c2.205,1.104,3.305,1.104,5.523,1.104
			c5.533,0,11.055-5.521,11.055-11.05V576.264C629.94,566.312,615.579,559.678,598.991,554.149z M598.991,852.644
			c-24.33-7.742-50.85-11.057-77.379-11.057c-37.598,0-91.771,14.368-121.615,33.167V620.479
			c29.844-18.794,84.018-33.164,121.615-33.164c26.529,0,53.049,3.311,77.379,11.057V852.644z"/>
	</defs>
	<clipPath id="SVGID_2_">
		<use xlink:href="#SVGID_1_"  overflow="visible"/>
	</clipPath>
	<circle clip-path="url(#SVGID_2_)" fill="#FFFFFF" cx="400.111" cy="400" r="400"/>
</g>
</svg>
