<?xml version="1.0" encoding="utf-8"?>
<!-- Generator: Adobe Illustrator 16.0.3, SVG Export Plug-In . SVG Version: 6.00 Build 0)  -->
<!DOCTYPE svg PUBLIC "-//W3C//DTD SVG 1.1//EN" "http://www.w3.org/Graphics/SVG/1.1/DTD/svg11.dtd">
<svg version="1.1" id="圖層_1" xmlns="http://www.w3.org/2000/svg" xmlns:xlink="http://www.w3.org/1999/xlink" x="0px" y="0px"
	 width="400px" height="400px" viewBox="0 0 400 400" enable-background="new 0 0 400 400" xml:space="preserve">
<g>
	<g>
		<path fill="#FFAB91" d="M227.57,187.832c-32.513,0-58.963-26.45-58.963-58.961c0-32.512,26.45-58.962,58.963-58.962
			c32.511,0,58.961,26.45,58.961,58.962C286.531,161.382,260.081,187.832,227.57,187.832z M227.57,101.275
			c-15.217,0-27.596,12.38-27.596,27.596c0,15.216,12.379,27.594,27.596,27.594c15.216,0,27.594-12.377,27.594-27.594
			C255.164,113.655,242.786,101.275,227.57,101.275z"/>
	</g>
	<g>
		<path fill="#64FFDA" d="M123.865,302.887c-67.77,0-122.906-55.137-122.906-122.907c0-67.77,55.136-122.905,122.906-122.905
			c67.771,0,122.905,55.135,122.905,122.905C246.77,247.75,191.635,302.887,123.865,302.887z M123.865,88.44
			c-50.476,0-91.54,41.065-91.54,91.539c0,50.476,41.064,91.54,91.54,91.54c50.475,0,91.539-41.064,91.539-91.54
			C215.403,129.505,174.339,88.44,123.865,88.44z"/>
	</g>
	<g>
		<path fill="#FF8A65" d="M275.67,233H23.171c-8.661,0-15.683-6.338-15.683-15s7.022-15,15.683-15H275.67
			c8.662,0,15.684,6.338,15.684,15S284.332,233,275.67,233z"/>
	</g>
	<g>
		<path fill="#FF8A65" d="M72,365.457c-8.661,0-15-7.021-15-15.684V192.942c0-8.661,6.339-15.683,15-15.683s15,7.022,15,15.683
			v156.831C87,358.436,80.661,365.457,72,365.457z"/>
	</g>
	<g>
		<path fill="#FF8A65" d="M232,365.457c-8.662,0-15-6.348-15-14.179V232.178c0-7.83,6.338-14.178,15-14.178s15,6.348,15,14.178
			v119.101C247,359.109,240.662,365.457,232,365.457z"/>
	</g>
	<g>
		<path fill="#FF8A65" d="M265.692,366h-32.936c-8.661,0-15.683-6.84-15.683-15.5c0-8.662,7.021-15.5,15.683-15.5h32.936
			c8.661,0,15.684,6.838,15.684,15.5C281.376,359.16,274.354,366,265.692,366z"/>
	</g>
	<g>
		<path fill="#64FFDA" d="M383.884,102h-72.143c-8.661,0-15.684-6.839-15.684-15.5S303.08,71,311.741,71h72.143
			c8.661,0,15.684,6.839,15.684,15.5S392.545,102,383.884,102z"/>
	</g>
	<g>
		<path fill="#64FFDA" d="M347.5,138.051c-8.662,0-15.5-7.022-15.5-15.683V50.225c0-8.66,6.838-15.683,15.5-15.683
			c8.66,0,15.5,7.022,15.5,15.683v72.143C363,131.029,356.16,138.051,347.5,138.051z"/>
	</g>
	<g>
		<path fill="#FFAB91" d="M341.54,108H303.9c-8.661,0-15.684-6.839-15.684-15.5S295.239,77,303.9,77h37.64
			c8.66,0,15.683,6.839,15.683,15.5S350.2,108,341.54,108z"/>
	</g>
	<g>
		<path fill="#FFAB91" d="M323,127.073c-8.661,0-16-7.022-16-15.684V73.75c0-8.661,7.339-15.684,16-15.684s16,7.022,16,15.684
			v37.639C339,120.051,331.661,127.073,323,127.073z"/>
	</g>
</g>
</svg>
