<?xml version="1.0" encoding="utf-8"?>
<!-- Generator: Adobe Illustrator 16.0.3, SVG Export Plug-In . SVG Version: 6.00 Build 0)  -->
<!DOCTYPE svg PUBLIC "-//W3C//DTD SVG 1.1//EN" "http://www.w3.org/Graphics/SVG/1.1/DTD/svg11.dtd">
<svg version="1.1" id="圖層_1" xmlns="http://www.w3.org/2000/svg" xmlns:xlink="http://www.w3.org/1999/xlink" x="0px" y="0px"
	 width="300px" height="300px" viewBox="0 0 300 300" enable-background="new 0 0 300 300" xml:space="preserve">
<circle fill="#FFFFFF" cx="149.573" cy="149.965" r="150"/>
<g>
	<g>
		<path fill="#FFAB91" d="M164.588,143.675c-17.614,0-31.942-14.329-31.942-31.941c0-17.613,14.328-31.94,31.942-31.94
			c17.613,0,31.939,14.328,31.939,31.94C196.527,129.346,182.201,143.675,164.588,143.675z M164.588,96.784
			c-8.244,0-14.951,6.707-14.951,14.949c0,8.243,6.707,14.948,14.951,14.948c8.243,0,14.947-6.705,14.947-14.948
			C179.535,103.491,172.831,96.784,164.588,96.784z"/>
	</g>
	<g>
		<path fill="#64FFDA" d="M108.407,206.002c-36.712,0-66.582-29.869-66.582-66.581c0-36.713,29.869-66.582,66.582-66.582
			c36.713,0,66.581,29.869,66.581,66.582C174.988,176.133,145.121,206.002,108.407,206.002z M108.407,89.831
			c-27.344,0-49.589,22.245-49.589,49.59c0,27.344,22.245,49.59,49.589,49.59c27.343,0,49.589-22.246,49.589-49.59
			C157.996,112.076,135.75,89.831,108.407,89.831z"/>
	</g>
	<g>
		<path fill="#FF8A65" d="M190.645,167H53.858c-4.691,0-8.496-2.809-8.496-7.5s3.805-7.5,8.496-7.5h136.786
			c4.691,0,8.494,2.809,8.494,7.5S195.336,167,190.645,167z"/>
	</g>
	<g>
		<path fill="#FF8A65" d="M81,239.899c-4.692,0-8-3.804-8-8.495v-84.961c0-4.692,3.308-8.496,8-8.496c4.69,0,8,3.804,8,8.496v84.961
			C89,236.096,85.69,239.899,81,239.899z"/>
	</g>
	<g>
		<path fill="#FF8A65" d="M167,239.899c-4.689,0-8-3.461-8-7.729V167.23c0-4.27,3.311-7.73,8-7.73c4.691,0,8,3.461,8,7.73v64.939
			C175,236.438,171.691,239.899,167,239.899z"/>
	</g>
	<g>
		<path fill="#FF8A65" d="M185.237,240h-17.839c-4.692,0-8.497-3.309-8.497-8c0-4.695,3.805-8,8.497-8h17.839
			c4.693,0,8.498,3.305,8.498,8C193.735,236.691,189.931,240,185.237,240z"/>
	</g>
	<g>
		<path fill="#64FFDA" d="M249.268,98h-39.082c-4.691,0-8.497-3.807-8.497-8.5c0-4.692,3.806-8.5,8.497-8.5h39.082
			c4.69,0,8.495,3.808,8.495,8.5C257.763,94.193,253.958,98,249.268,98z"/>
	</g>
	<g>
		<path fill="#64FFDA" d="M228.5,116.706c-4.692,0-9.5-3.803-9.5-8.496V69.129c0-4.692,4.808-8.495,9.5-8.495
			c4.69,0,9.5,3.803,9.5,8.495v39.081C238,112.903,233.19,116.706,228.5,116.706z"/>
	</g>
	<g>
		<path fill="#FFAB91" d="M226.328,101h-20.391c-4.691,0-8.496-3.809-8.496-8.5c0-4.69,3.805-8.5,8.496-8.5h20.391
			c4.689,0,8.496,3.81,8.496,8.5C234.824,97.191,231.018,101,226.328,101z"/>
	</g>
	<g>
		<path fill="#FFAB91" d="M215.5,110.76c-4.691,0-8.5-3.805-8.5-8.498v-20.39c0-4.693,3.809-8.497,8.5-8.497
			c4.693,0,8.5,3.804,8.5,8.497v20.39C224,106.956,220.193,110.76,215.5,110.76z"/>
	</g>
</g>
</svg>
