<?xml version="1.0" encoding="utf-8"?>
<!-- Generator: Adobe Illustrator 16.0.3, SVG Export Plug-In . SVG Version: 6.00 Build 0)  -->
<!DOCTYPE svg PUBLIC "-//W3C//DTD SVG 1.1//EN" "http://www.w3.org/Graphics/SVG/1.1/DTD/svg11.dtd">
<svg version="1.1" id="圖層_1" xmlns="http://www.w3.org/2000/svg" xmlns:xlink="http://www.w3.org/1999/xlink" x="0px" y="0px"
	 width="353.23px" height="353.23px" viewBox="0 0 353.23 353.23" enable-background="new 0 0 353.23 353.23" xml:space="preserve">
<circle fill="#64FFDA" cx="176.615" cy="176.616" r="176.615"/>
<path fill="#FFFFFF" d="M176.615,268.781c43.622,0,78.999-35.377,78.999-78.999C211.991,189.781,176.615,225.158,176.615,268.781z
	 M120.439,165.643c0,12.114,9.829,21.944,21.943,21.944c4.65,0,8.867-1.405,12.464-3.861l-0.177,1.666
	c0,12.113,9.832,21.945,21.944,21.945s21.944-9.832,21.944-21.945l-0.176-1.666c3.51,2.455,7.814,3.861,12.464,3.861
	c12.117,0,21.943-9.83,21.943-21.944c0-8.777-5.176-16.24-12.553-19.749c7.377-3.51,12.553-10.973,12.553-19.75
	c0-12.114-9.827-21.944-21.943-21.944c-4.649,0-8.867,1.405-12.464,3.863l0.176-1.667c0-12.114-9.831-21.944-21.944-21.944
	s-21.944,9.83-21.944,21.944l0.177,1.667c-3.51-2.458-7.814-3.863-12.464-3.863c-12.114,0-21.943,9.83-21.943,21.944
	c0,8.777,5.176,16.239,12.552,19.75C125.616,149.404,120.439,156.866,120.439,165.643z M176.615,123.95
	c12.112,0,21.944,9.829,21.944,21.943s-9.831,21.945-21.944,21.945s-21.943-9.831-21.943-21.945S164.503,123.95,176.615,123.95z
	 M97.616,189.781c0,43.622,35.375,78.999,78.999,78.999C176.615,225.158,141.24,189.781,97.616,189.781z"/>
</svg>
