<?xml version="1.0" encoding="utf-8"?>
<!-- Generator: Adobe Illustrator 16.0.3, SVG Export Plug-In . SVG Version: 6.00 Build 0)  -->
<!DOCTYPE svg PUBLIC "-//W3C//DTD SVG 1.1//EN" "http://www.w3.org/Graphics/SVG/1.1/DTD/svg11.dtd">
<svg version="1.1" id="圖層_1" xmlns="http://www.w3.org/2000/svg" xmlns:xlink="http://www.w3.org/1999/xlink" x="0px" y="0px"
	 width="353.23px" height="353.23px" viewBox="0 0 353.23 353.23" enable-background="new 0 0 353.23 353.23" xml:space="preserve">
<circle fill="#FF8A65" cx="176.615" cy="176.616" r="176.615"/>
<path fill="#FFFFFF" d="M255.603,202.977l13.177-13.186l-13.177-13.177l-32.906,32.906l-78.985-78.989l32.903-32.903L163.436,84.45
	l-13.182,13.179L137.076,84.45l-19.722,19.722l-13.182-13.179l-13.179,13.179l13.179,13.181L84.45,137.076l13.179,13.179
	L84.45,163.436l13.179,13.179l32.903-32.903l78.989,78.985l-32.906,32.906l13.177,13.177l13.186-13.177l13.177,13.177l19.72-19.72
	l13.187,13.177l13.177-13.177l-13.177-13.187l19.72-19.72L255.603,202.977z"/>
</svg>
