<?xml version="1.0" encoding="utf-8"?>
<!-- Generator: Adobe Illustrator 16.0.3, SVG Export Plug-In . SVG Version: 6.00 Build 0)  -->
<!DOCTYPE svg PUBLIC "-//W3C//DTD SVG 1.1//EN" "http://www.w3.org/Graphics/SVG/1.1/DTD/svg11.dtd">
<svg version="1.1" id="圖層_1" xmlns="http://www.w3.org/2000/svg" xmlns:xlink="http://www.w3.org/1999/xlink" x="0px" y="0px"
	 width="353.23px" height="353.23px" viewBox="0 0 353.23 353.23" enable-background="new 0 0 353.23 353.23" xml:space="preserve">
<circle fill="#64FFDA" cx="176.615" cy="176.616" r="176.615"/>
<path fill="#FFFFFF" d="M241.131,102.883h-38.522c-3.874-10.69-14.014-18.433-25.993-18.433c-11.982,0-22.119,7.743-25.991,18.433
	h-38.524c-10.139,0-18.433,8.294-18.433,18.433v129.031c0,10.139,8.294,18.433,18.433,18.433h129.031
	c10.139,0,18.433-8.294,18.433-18.433V121.316C259.563,111.177,251.269,102.883,241.131,102.883z M176.615,102.883
	c5.067,0,9.217,4.147,9.217,9.216c0,5.07-4.149,9.217-9.217,9.217c-5.069,0-9.216-4.147-9.216-9.217
	C167.399,107.03,171.546,102.883,176.615,102.883z M195.048,231.914h-64.515v-18.433h64.515V231.914z M222.697,195.048h-92.165
	v-18.433h92.165V195.048z M222.697,158.182h-92.165v-18.433h92.165V158.182z"/>
</svg>
