<?xml version="1.0" encoding="utf-8"?>
<!-- Generator: Adobe Illustrator 16.0.3, SVG Export Plug-In . SVG Version: 6.00 Build 0)  -->
<!DOCTYPE svg PUBLIC "-//W3C//DTD SVG 1.1//EN" "http://www.w3.org/Graphics/SVG/1.1/DTD/svg11.dtd">
<svg version="1.1" id="圖層_1" xmlns="http://www.w3.org/2000/svg" xmlns:xlink="http://www.w3.org/1999/xlink" x="0px" y="0px"
	 width="353.23px" height="353.23px" viewBox="0 0 353.23 353.23" enable-background="new 0 0 353.23 353.23" xml:space="preserve">
<circle fill="#FF8A65" cx="176.615" cy="176.616" r="176.615"/>
<path fill="#FFFFFF" d="M180.606,165.349c-23.244-6.041-30.719-12.288-30.719-22.016c0-11.163,10.343-18.946,27.649-18.946
	c18.231,0,24.986,8.706,25.602,21.506h22.631c-0.72-17.613-11.47-33.794-32.871-39.017V84.45h-30.722v22.119
	c-19.866,4.303-35.842,17.206-35.842,36.97c0,23.656,19.559,35.432,48.13,42.292c25.604,6.146,30.724,15.155,30.724,24.681
	c0,7.065-5.02,18.331-27.651,18.331c-21.096,0-29.392-9.425-30.517-21.506h-22.528c1.228,22.426,18.023,35.021,37.684,39.222v22.222
	h30.722v-22.017c19.971-3.79,35.842-15.36,35.842-36.356C228.739,181.325,203.857,171.392,180.606,165.349z"/>
</svg>
