<?xml version="1.0" encoding="utf-8"?>
<!-- Generator: Adobe Illustrator 16.0.3, SVG Export Plug-In . SVG Version: 6.00 Build 0)  -->
<!DOCTYPE svg PUBLIC "-//W3C//DTD SVG 1.1//EN" "http://www.w3.org/Graphics/SVG/1.1/DTD/svg11.dtd">
<svg version="1.1" id="圖層_1" xmlns="http://www.w3.org/2000/svg" xmlns:xlink="http://www.w3.org/1999/xlink" x="0px" y="0px"
	 width="353.23px" height="353.23px" viewBox="0 0 353.23 353.23" enable-background="new 0 0 353.23 353.23" xml:space="preserve">
<circle fill="#64FFDA" cx="176.615" cy="176.616" r="176.615"/>
<path fill="#FFFFFF" d="M183.905,202.34l-21.282-21.032l0.251-0.249c14.579-16.256,24.967-34.941,31.087-54.715h24.547v-16.757
	h-58.651V92.829H143.1v16.757H84.45v16.674h93.589c-5.613,16.17-14.495,31.503-26.56,44.91c-7.792-8.63-14.244-18.099-19.355-28.069
	h-16.757c6.117,13.658,14.495,26.56,24.968,38.207l-42.646,42.062l11.897,11.896l41.894-41.894l26.058,26.061L183.905,202.34z
	 M231.076,159.858h-16.757l-37.704,100.543h16.757l9.386-25.136h39.798l9.468,25.136h16.757L231.076,159.858z M209.123,218.509
	l13.574-36.28l13.575,36.28H209.123z"/>
</svg>
