<?xml version="1.0" encoding="utf-8"?>
<!-- Generator: Adobe Illustrator 16.0.3, SVG Export Plug-In . SVG Version: 6.00 Build 0)  -->
<!DOCTYPE svg PUBLIC "-//W3C//DTD SVG 1.1//EN" "http://www.w3.org/Graphics/SVG/1.1/DTD/svg11.dtd">
<svg version="1.1" id="圖層_1" xmlns="http://www.w3.org/2000/svg" xmlns:xlink="http://www.w3.org/1999/xlink" x="0px" y="0px"
	 width="353.23px" height="353.23px" viewBox="0 0 353.23 353.23" enable-background="new 0 0 353.23 353.23" xml:space="preserve">
<circle fill="#64FFDA" cx="176.615" cy="176.616" r="176.615"/>
<path fill="#FFFFFF" d="M246.836,172.226H233.67v-35.111c0-9.656-7.899-17.555-17.556-17.555h-35.11v-13.166
	c0-12.114-9.832-21.944-21.944-21.944c-12.112,0-21.944,9.83-21.944,21.944v13.166h-35.111c-9.656,0-17.467,7.899-17.467,17.555
	v33.355h13.079c13.079,0,23.699,10.619,23.699,23.7c0,13.08-10.621,23.701-23.699,23.701H84.45v33.353
	c0,9.656,7.899,17.556,17.555,17.556h33.355v-13.167c0-13.08,10.621-23.701,23.699-23.701s23.702,10.621,23.702,23.701v13.167
	h33.353c9.656,0,17.556-7.899,17.556-17.556v-35.11h13.166c12.112,0,21.944-9.832,21.944-21.943
	C268.78,182.058,258.948,172.226,246.836,172.226z"/>
</svg>
