<?xml version="1.0" encoding="utf-8"?>
<!-- Generator: Adobe Illustrator 16.0.3, SVG Export Plug-In . SVG Version: 6.00 Build 0)  -->
<!DOCTYPE svg PUBLIC "-//W3C//DTD SVG 1.1//EN" "http://www.w3.org/Graphics/SVG/1.1/DTD/svg11.dtd">
<svg version="1.1" id="圖層_1" xmlns="http://www.w3.org/2000/svg" xmlns:xlink="http://www.w3.org/1999/xlink" x="0px" y="0px"
	 width="353.23px" height="353.23px" viewBox="0 0 353.23 353.23" enable-background="new 0 0 353.23 353.23" xml:space="preserve">
<circle fill="#FF8A65" cx="176.615" cy="176.616" r="176.615"/>
<path fill="#FFFFFF" d="M229.418,176.617l36.58-36.581c3.586-3.586,3.586-9.376,0-12.959L226.11,87.187
	c-3.586-3.586-9.376-3.586-12.962,0l-36.581,36.581l-36.581-36.581c-1.838-1.746-4.136-2.666-6.525-2.666
	c-2.298,0-4.688,0.92-6.434,2.666l-39.891,39.891c-3.584,3.583-3.584,9.373,0,12.959l36.581,36.581l-36.581,36.58
	c-3.584,3.582-3.584,9.376,0,12.962l39.891,39.889c3.583,3.581,9.375,3.581,12.959,0l36.581-36.581l36.581,36.581
	c1.841,1.84,4.139,2.665,6.525,2.665c2.388,0,4.686-0.92,6.525-2.665l39.889-39.889c3.591-3.586,3.591-9.38,0-12.962
	L229.418,176.617z M176.751,148.86c5.054,0,9.192,4.135,9.192,9.19s-4.138,9.191-9.192,9.191c-5.056,0-9.191-4.136-9.191-9.191
	S171.696,148.86,176.751,148.86z M133.461,166.873l-33.366-33.271l33.366-33.365l33.271,33.273L133.461,166.873z M158.369,185.624
	c-5.056,0-9.191-4.138-9.191-9.191c0-5.056,4.136-9.191,9.191-9.191s9.191,4.136,9.191,9.191
	C167.56,181.487,163.425,185.624,158.369,185.624z M176.751,204.007c-5.056,0-9.191-4.139-9.191-9.191
	c0-5.054,4.135-9.191,9.191-9.191c5.054,0,9.192,4.138,9.192,9.191C185.943,199.868,181.805,204.007,176.751,204.007z
	 M195.135,167.241c5.053,0,9.19,4.136,9.19,9.191c0,5.054-4.138,9.191-9.19,9.191c-5.054,0-9.191-4.138-9.191-9.191
	C185.943,171.377,190.081,167.241,195.135,167.241z M219.585,253.086l-33.363-33.273l33.363-33.362l33.272,33.272L219.585,253.086z"
	/>
</svg>
