<?xml version="1.0" encoding="utf-8"?>
<!-- Generator: Adobe Illustrator 16.0.3, SVG Export Plug-In . SVG Version: 6.00 Build 0)  -->
<!DOCTYPE svg PUBLIC "-//W3C//DTD SVG 1.1//EN" "http://www.w3.org/Graphics/SVG/1.1/DTD/svg11.dtd">
<svg version="1.1" id="圖層_1" xmlns="http://www.w3.org/2000/svg" xmlns:xlink="http://www.w3.org/1999/xlink" x="0px" y="0px"
	 width="353.23px" height="353.231px" viewBox="0 0 353.23 353.231" enable-background="new 0 0 353.23 353.231"
	 xml:space="preserve">
<circle fill="#FF8A65" cx="176.615" cy="176.616" r="176.615"/>
<path fill="#FFFFFF" d="M149.444,175.009c-6.359,0-11.521,5.162-11.521,11.519c0,6.363,5.162,11.521,11.521,11.521
	s11.521-5.157,11.521-11.521C160.965,180.171,155.803,175.009,149.444,175.009z M204.744,175.009
	c-6.359,0-11.521,5.162-11.521,11.519c0,6.363,5.162,11.521,11.521,11.521c6.358,0,11.52-5.157,11.52-11.521
	C216.264,180.171,211.103,175.009,204.744,175.009z M177.094,85.147c-50.876,0-92.166,41.29-92.166,92.166
	c0,50.879,41.29,92.164,92.166,92.164s92.166-41.285,92.166-92.164C269.26,126.437,227.97,85.147,177.094,85.147z M177.094,251.044
	c-40.645,0-73.733-33.087-73.733-73.731c0-2.673,0.185-5.346,0.461-7.925c21.75-9.678,38.986-27.468,48.018-49.494
	c16.683,23.595,44.146,38.986,75.207,38.986c7.191,0,14.104-0.831,20.737-2.396c1.936,6.543,3.042,13.548,3.042,20.829
	C250.826,217.958,217.74,251.044,177.094,251.044z"/>
</svg>
