<?xml version="1.0" encoding="utf-8"?>
<!-- Generator: Adobe Illustrator 16.0.3, SVG Export Plug-In . SVG Version: 6.00 Build 0)  -->
<!DOCTYPE svg PUBLIC "-//W3C//DTD SVG 1.1//EN" "http://www.w3.org/Graphics/SVG/1.1/DTD/svg11.dtd">
<svg version="1.1" id="圖層_1" xmlns="http://www.w3.org/2000/svg" xmlns:xlink="http://www.w3.org/1999/xlink" x="0px" y="0px"
	 width="353.23px" height="353.23px" viewBox="0 0 353.23 353.23" enable-background="new 0 0 353.23 353.23" xml:space="preserve">
<circle fill="#FF8A65" cx="176.615" cy="176.616" r="176.615"/>
<path fill="#FFFFFF" d="M176.615,84.45c-50.896,0-92.165,41.27-92.165,92.165c0,50.893,41.27,92.165,92.165,92.165
	c8.5,0,15.361-6.86,15.361-15.36c0-3.99-1.535-7.581-3.99-10.342c-2.361-2.664-3.896-6.25-3.896-10.14
	c0-8.501,6.86-15.36,15.36-15.36h18.127c28.261,0,51.202-22.941,51.202-51.204C268.78,121.112,227.508,84.45,176.615,84.45z
	 M120.292,176.615c-8.5,0-15.361-6.86-15.361-15.361s6.86-15.361,15.361-15.361c8.501,0,15.36,6.86,15.36,15.361
	S128.793,176.615,120.292,176.615z M151.013,135.653c-8.5,0-15.361-6.86-15.361-15.361s6.861-15.361,15.361-15.361
	s15.361,6.86,15.361,15.361S159.513,135.653,151.013,135.653z M202.217,135.653c-8.5,0-15.361-6.86-15.361-15.361
	s6.861-15.361,15.361-15.361s15.361,6.86,15.361,15.361S210.717,135.653,202.217,135.653z M232.938,176.615
	c-8.501,0-15.36-6.86-15.36-15.361s6.859-15.361,15.36-15.361s15.36,6.86,15.36,15.361S241.439,176.615,232.938,176.615z"/>
</svg>
